<svg t="1658972462713" class="icon" viewBox="0 0 1024 1024" version="1.1" xmlns="http://www.w3.org/2000/svg" p-id="7139" fill="currentColor"><path d="M512 620.8c-121.6 0-220.8-99.2-220.8-220.8S390.4 179.2 512 179.2 732.8 278.4 732.8 400 633.6 620.8 512 620.8zM512 256c-80 0-147.2 67.2-147.2 147.2s67.2 147.2 147.2 147.2 147.2-67.2 147.2-147.2S592 256 512 256z" p-id="7140"></path><path d="M512 1024c-9.6 0-19.2-3.2-25.6-9.6-16-12.8-16-38.4 0-51.2 99.2-102.4 355.2-406.4 355.2-560 0-182.4-147.2-329.6-329.6-329.6s-329.6 147.2-329.6 329.6c0 86.4 83.2 236.8 233.6 419.2 12.8 16 9.6 38.4-6.4 51.2-16 12.8-38.4 9.6-51.2-6.4C192 665.6 108.8 508.8 108.8 400 108.8 179.2 291.2 0 512 0s403.2 179.2 403.2 403.2c0 214.4-361.6 595.2-374.4 611.2-9.6 6.4-19.2 9.6-28.8 9.6z" p-id="7141"></path></svg>